<svg xmlns="http://www.w3.org/2000/svg" width="800.001" height="757.424" viewBox="0 0 800.001 757.424">
  <g id="_5bb1a5a0b9e7081384c6021719383e85" data-name="5bb1a5a0b9e7081384c6021719383e85" transform="translate(-10.046 -36.062)">
    <path id="Path_204" data-name="Path 204" d="M788.625,331.768l-106.2-87.184a57.247,57.247,0,0,0,.408-6.531V116.42a55.777,55.777,0,0,0-55.755-55.755h-42.2a55.777,55.777,0,0,0-55.755,55.755v2.2L444.623,49.4a58.517,58.517,0,0,0-73.878-.408L31.968,321.074a58.645,58.645,0,0,0,73.47,91.429L407.072,170.216,714.258,422.381a58.611,58.611,0,1,0,74.367-90.613Zm-666.208,99.1V737.648A55.778,55.778,0,0,0,178.173,793.4H386.337a48.314,48.314,0,0,1-1.225-10.939V556.749c0-30.857,28.9-55.755,64.49-55.755h54.531c35.592,0,64.49,24.98,64.49,55.755v225.8a48.858,48.858,0,0,1-1.224,10.939h64.735A55.778,55.778,0,0,0,687.89,737.73V437.483l-282.7-224.491L122.417,430.871Z" transform="translate(0 0)" fill="#020202"/>
  </g>
</svg>
