<svg xmlns="http://www.w3.org/2000/svg" width="800" height="634.103" viewBox="0 0 800 634.103">
  <g id="_x32_1_favorite" transform="translate(0 -53.087)">
    <path id="Path_153" data-name="Path 153" d="M599.8,53.087c-96.209,0-176.522,68.006-195.525,158.567a4.36,4.36,0,0,1-8.55,0c-19-90.561-99.314-158.567-195.523-158.567h0C16.528,53.087-69.83,280.065,67.391,402.154L378.6,679.047a32.192,32.192,0,0,0,42.8,0L732.609,402.154C869.829,280.065,783.471,53.087,599.8,53.087Z" transform="translate(0 0)" fill="#fe646f"/>
    <g id="Group_49" data-name="Group 49" transform="translate(366.781 53.087)">
      <path id="Path_154" data-name="Path 154" d="M467.759,53.087a201.142,201.142,0,0,0-32.666,2.669c159.961,25.739,227.547,232.061,99.038,346.4L234.74,668.532l11.819,10.516a32.193,32.193,0,0,0,42.8,0l311.21-276.893C737.789,280.065,651.431,53.087,467.759,53.087Z" transform="translate(-234.74 -53.087)" fill="#fd4755"/>
    </g>
  </g>
</svg>
