<svg xmlns="http://www.w3.org/2000/svg" width="800" height="742.307" viewBox="0 0 800 742.307">
  <g id="add-to-favourites" transform="translate(0.001 -22.068)">
    <g id="Group_17" data-name="Group 17" transform="translate(-0.001 22.068)">
      <path id="Path_48" data-name="Path 48" d="M615.665,411.344H549.4V345.077a50.019,50.019,0,1,0-100.037,0v66.267H383.093a50.019,50.019,0,0,0,0,100.037h66.271v66.271a50.019,50.019,0,0,0,100.037,0V511.381h66.265a50.019,50.019,0,0,0,0-100.037Z" transform="translate(102.321 61.794)"/>
      <path id="Path_49" data-name="Path 49" d="M501.663,645.262H485.412a100.037,100.037,0,0,1,0-200.074h16.251V428.939a100.037,100.037,0,0,1,200.074,0v16.249h16.246a100.114,100.114,0,0,1,19.382,1.9c87.45-100.8,83.349-254.013-12.438-349.813a256.956,256.956,0,0,0-324.91-31.56A256.953,256.953,0,0,0,75.106,97.278c-100.143,100.153-100.143,263.118,0,363.275L357.242,742.683c2.91,2.9,5.991,5.834,9.162,8.711a50.015,50.015,0,0,0,67.19.035c3.2-2.9,6.309-5.852,9.241-8.784l60.894-60.892a99.991,99.991,0,0,1-2.061-20.238V645.264h-.005Z" transform="translate(0.001 -22.068)"/>
    </g>
  </g>
</svg>
