<svg xmlns="http://www.w3.org/2000/svg" width="800" height="853.335" viewBox="0 0 800 853.335">
  <g id="arrow" transform="translate(-0.5 0)">
    <path id="Path_50" data-name="Path 50" d="M550.5,25.008V728.341a24.756,24.756,0,0,1-25,25h-200a24.756,24.756,0,0,1-25-25L.5,25.008a24.752,24.752,0,0,1,25-25h500a24.752,24.752,0,0,1,25,25Zm0,0" transform="translate(0 0.005)" fill="#07485e"/>
    <path id="Path_51" data-name="Path 51" d="M460.5,25.008V728.341a24.756,24.756,0,0,1-25,25h-200a24.756,24.756,0,0,1-25-25l-75-175V.008h300a24.752,24.752,0,0,1,25,25Zm0,0" transform="translate(90 0.005)" fill="#03232e"/>
    <path id="Path_52" data-name="Path 52" d="M336.5,152.513l-300-150c-7.493-3.5-17-3.5-24,1a26,26,0,0,0-12,21.5V728.346a24.309,24.309,0,0,0,17,23.5l208,69.505,92,30.495c7.363,2.949,16.8,1.283,22.5-2.995a26.052,26.052,0,0,0,10.5-20.5V175.013a25.591,25.591,0,0,0-14-22.5Zm0,0" transform="translate(0 0)" fill="#ff8859"/>
    <path id="Path_53" data-name="Path 53" d="M260.5,136.209V789.542a26.07,26.07,0,0,1-10.5,20.5c-5.651,4.238-15.065,5.977-22.5,2.995l-92-30.495V58.207l111,55.5a25.591,25.591,0,0,1,14,22.5Zm0,0" transform="translate(90 38.805)" fill="#ff3939"/>
    <path id="Path_54" data-name="Path 54" d="M453.709,429.043A24.982,24.982,0,0,1,440.5,407V382h-175a24.986,24.986,0,0,1-25-25V257a24.981,24.981,0,0,1,25-25h175V207a24.995,24.995,0,0,1,38.867-20.8l150,100a24.993,24.993,0,0,1,0,41.6l-150,100A24.978,24.978,0,0,1,453.709,429.043Zm0,0" transform="translate(160 121.347)" fill="#ff3939"/>
    <path id="Path_55" data-name="Path 55" d="M170.5,237.008v100a25,25,0,0,1-50,0v-100a25,25,0,0,1,50,0Zm0,0" transform="translate(80 141.339)" fill="#fff5f5"/>
    <path id="Path_56" data-name="Path 56" d="M160.5,237.008v100a24.756,24.756,0,0,1-25,25v-150A24.752,24.752,0,0,1,160.5,237.008Zm0,0" transform="translate(90 141.339)" fill="#efe2dd"/>
  </g>
</svg>
