<svg id="catering_1_" data-name="catering (1)" xmlns="http://www.w3.org/2000/svg" width="800" height="751.657" viewBox="0 0 800 751.657">
  <path id="Path_57" data-name="Path 57" d="M263.349,430.44h25.757a7.756,7.756,0,0,1,7.812,7.652v21.366a7.756,7.756,0,0,1-7.812,7.652H275.33V514a15.512,15.512,0,0,1-15.625,15.3H247.992v47.837H476.338a34.163,34.163,0,0,1-16.687-23.985,4.723,4.723,0,0,1,1.1-3.868,4.927,4.927,0,0,1,3.717-1.692H481.3a34.259,34.259,0,0,1-21.649-26.333,4.715,4.715,0,0,1,1.1-3.868,4.913,4.913,0,0,1,3.717-1.686h16.827a34.274,34.274,0,0,1-21.643-26.334,4.688,4.688,0,0,1,1.1-3.868,4.909,4.909,0,0,1,3.717-1.692h16.827a34.252,34.252,0,0,1-21.643-26.334,4.711,4.711,0,0,1,1.093-3.868,4.923,4.923,0,0,1,3.717-1.686H605.427V321.38c0-8.764-6.72-18.777-14.941-22.233l-88.513-37.274c-8.215-3.462-14.941-13.469-14.941-22.239V218.161a96.8,96.8,0,0,1-50.049,13.816h-25.22A96.792,96.792,0,0,1,360.175,217.2v22.436c0,8.77-6.72,18.777-14.942,22.239l-88.513,37.274c-8.215,3.462-14.935,13.469-14.935,22.233v62.831a121.859,121.859,0,0,1,21.564,46.229Zm0,0" transform="translate(136.004 115.204)" fill="#def9ff"/>
  <path id="Path_58" data-name="Path 58" d="M257.47,424.162H245.758V472h25.8V415.422a15.7,15.7,0,0,1-14.087,8.74Zm0,0" transform="translate(138.239 220.343)" fill="#abebff"/>
  <path id="Path_59" data-name="Path 59" d="M263.347,430.44H273.79V337.181c0-8.77,6.72-18.777,14.935-22.239l88.519-37.274c8.215-3.461,14.935-13.469,14.935-22.239V230.01a96.307,96.307,0,0,1-32-12.811v22.436c0,8.77-6.72,18.777-14.941,22.239l-88.513,37.274c-8.215,3.462-14.935,13.469-14.935,22.233v62.83a121.945,121.945,0,0,1,21.558,46.229Zm0,0" transform="translate(136.006 115.204)" fill="#abebff"/>
  <g id="Group_18" data-name="Group 18" transform="translate(414.837 190.237)">
    <path id="Path_60" data-name="Path 60" d="M302.782,182.778V133.77H285.65A19.93,19.93,0,0,0,265.5,153.461V177.3a19.926,19.926,0,0,0,20.154,19.686h18.231A92.426,92.426,0,0,1,302.782,182.778Zm0,0" transform="translate(-265.496 -119.285)" fill="#ffe2b8"/>
    <path id="Path_61" data-name="Path 61" d="M443.913,133.77H428.324v49.009a92.452,92.452,0,0,1-1.1,14.2H443.92A19.925,19.925,0,0,0,464.073,177.3V153.462A19.932,19.932,0,0,0,443.913,133.77Zm0,0" transform="translate(-174.522 -119.285)" fill="#ffe2b8"/>
    <path id="Path_62" data-name="Path 62" d="M289.359,124.3V187.8c0,51.61,42.823,93.451,95.648,93.451h25.22c52.826,0,95.648-41.841,95.648-93.451V124.3Zm0,0" transform="translate(-252.073 -124.305)" fill="#ffe2b8"/>
  </g>
  <path id="Path_63" data-name="Path 63" d="M321.488,187.8V124.3H289.359V187.8c0,51.609,42.823,93.45,95.648,93.45h25.22c1.16,0,2.307-.048,3.454-.09C362.461,279.384,321.488,238.278,321.488,187.8Zm0,0" transform="translate(162.765 65.932)" fill="#ffc987"/>
  <path id="Path_64" data-name="Path 64" d="M540.576,91.212c0-29.5-24.383-53.415-54.467-53.415A55.065,55.065,0,0,0,458.5,45.168a54.8,54.8,0,0,0-104.113,0A55.025,55.025,0,0,0,326.776,37.8c-30.084,0-54.468,23.913-54.468,53.415a53.182,53.182,0,0,0,26.648,45.918v49.128H515.466V136.2a53.126,53.126,0,0,0,25.11-44.986Zm0,0" transform="translate(153.174 3.978)" fill="#def9ff"/>
  <path id="Path_65" data-name="Path 65" d="M305.122,69.59a58.885,58.885,0,0,1,17.84-42.2c-28.3,1.925-50.653,25.031-50.653,53.271a53.206,53.206,0,0,0,26.642,45.924v49.129H334.87V120.865A59.393,59.393,0,0,1,305.122,69.59Zm0,0" transform="translate(153.174 14.528)" fill="#abebff"/>
  <path id="Path_66" data-name="Path 66" d="M209.215,307.657V279.685a12.881,12.881,0,0,0-13.007-12.751H131.175a12.881,12.881,0,0,0-13.007,12.751v27.972Zm0,0" transform="translate(66.47 141.584)" fill="#69cdff"/>
  <path id="Path_67" data-name="Path 67" d="M150.718,307.657V279.685a12.881,12.881,0,0,1,13.007-12.751h-32.55a12.881,12.881,0,0,0-13.007,12.751v27.972Zm0,0" transform="translate(66.47 141.584)" fill="#00a9ff"/>
  <path id="Path_68" data-name="Path 68" d="M377.4,389.946c-12.6-55.166-62.793-96.4-122.839-96.4h-92.7c-60.053,0-110.242,41.238-122.839,96.4Zm0,0" transform="translate(21.951 155.697)" fill="#e0e0e0"/>
  <path id="Path_69" data-name="Path 69" d="M88.346,389.946c12.6-55.166,62.793-96.4,122.845-96.4H161.863c-60.053,0-110.242,41.238-122.839,96.4Zm0,0" transform="translate(21.951 155.697)" fill="#c7c8ca"/>
  <path id="Path_70" data-name="Path 70" d="M48.852,421.133H81.328V468.97H48.852Zm0,0" transform="translate(27.479 223.372)" fill="#69cdff"/>
  <path id="Path_71" data-name="Path 71" d="M224.973,421.133H257.45V468.97H224.973Zm0,0" transform="translate(126.547 223.372)" fill="#69cdff"/>
  <path id="Path_72" data-name="Path 72" d="M31.355,380.5v46.886a15.513,15.513,0,0,0,15.625,15.3H378.071a15.513,15.513,0,0,0,15.625-15.3V380.5Zm0,0" transform="translate(17.637 201.818)" fill="#c7c8ca"/>
  <path id="Path_73" data-name="Path 73" d="M80.8,427.383V380.5H31.355v46.887a15.513,15.513,0,0,0,15.625,15.3H96.425A15.513,15.513,0,0,1,80.8,427.383Zm0,0" transform="translate(17.637 201.818)" fill="#a7a9ac"/>
  <path id="Path_74" data-name="Path 74" d="M423.058,385.553a7.756,7.756,0,0,1-7.812,7.652H25.347a7.756,7.756,0,0,1-7.812-7.652V364.187a7.756,7.756,0,0,1,7.812-7.652h389.9a7.756,7.756,0,0,1,7.813,7.652Zm0,0" transform="translate(9.863 189.109)" fill="#69cdff"/>
  <path id="Path_75" data-name="Path 75" d="M66.7,385.553V364.187a7.756,7.756,0,0,1,7.812-7.652H25.348a7.756,7.756,0,0,0-7.812,7.652v21.365a7.756,7.756,0,0,0,7.812,7.652H74.511A7.756,7.756,0,0,1,66.7,385.553Zm0,0" transform="translate(9.864 189.109)" fill="#00a9ff"/>
  <path id="Path_76" data-name="Path 76" d="M402.891,402.462H552.158a34.272,34.272,0,0,0,21.649-26.333,4.738,4.738,0,0,0-1.1-3.868,4.924,4.924,0,0,0-3.717-1.686H386.058a4.924,4.924,0,0,0-3.718,1.686,4.714,4.714,0,0,0-1.1,3.868,34.26,34.26,0,0,0,21.649,26.333Zm0,0" transform="translate(214.413 196.555)" fill="#ffcb00"/>
  <path id="Path_77" data-name="Path 77" d="M402.891,402.462H452.11a34.259,34.259,0,0,1-21.65-26.333,4.715,4.715,0,0,1,1.1-3.868,4.915,4.915,0,0,1,3.718-1.686H386.058a4.915,4.915,0,0,0-3.718,1.686,4.717,4.717,0,0,0-1.1,3.868A34.26,34.26,0,0,0,402.891,402.462Zm0,0" transform="translate(214.413 196.555)" fill="#ffaf10"/>
  <path id="Path_78" data-name="Path 78" d="M402.891,423.3H552.158a34.29,34.29,0,0,0,21.649-26.334,4.726,4.726,0,0,0-1.1-3.868,4.929,4.929,0,0,0-3.717-1.691H386.058a4.907,4.907,0,0,0-3.718,1.691,4.7,4.7,0,0,0-1.1,3.868A34.278,34.278,0,0,0,402.891,423.3Zm0,0" transform="translate(214.413 207.607)" fill="#ff99a3"/>
  <path id="Path_79" data-name="Path 79" d="M402.891,423.3H452.11a34.277,34.277,0,0,1-21.65-26.334,4.7,4.7,0,0,1,1.1-3.868,4.919,4.919,0,0,1,3.718-1.691H386.058a4.9,4.9,0,0,0-3.718,1.691,4.7,4.7,0,0,0-1.1,3.868A34.278,34.278,0,0,0,402.891,423.3Zm0,0" transform="translate(214.413 207.607)" fill="#f66"/>
  <path id="Path_80" data-name="Path 80" d="M402.891,444.138H552.158A34.272,34.272,0,0,0,573.808,417.8a4.736,4.736,0,0,0-1.1-3.868,4.925,4.925,0,0,0-3.717-1.686H386.058a4.925,4.925,0,0,0-3.718,1.686,4.713,4.713,0,0,0-1.1,3.868,34.26,34.26,0,0,0,21.649,26.334Zm0,0" transform="translate(214.413 218.66)" fill="#ffcb00"/>
  <path id="Path_81" data-name="Path 81" d="M402.891,444.138H452.11A34.259,34.259,0,0,1,430.46,417.8a4.713,4.713,0,0,1,1.1-3.868,4.915,4.915,0,0,1,3.718-1.686H386.058a4.915,4.915,0,0,0-3.718,1.686,4.715,4.715,0,0,0-1.1,3.868A34.26,34.26,0,0,0,402.891,444.138Zm0,0" transform="translate(214.413 218.66)" fill="#ffaf10"/>
  <path id="Path_82" data-name="Path 82" d="M397.929,462.63H557.114a34.187,34.187,0,0,0,16.693-23.984,4.723,4.723,0,0,0-1.1-3.868,4.928,4.928,0,0,0-3.717-1.692H386.057a4.907,4.907,0,0,0-3.717,1.692,4.7,4.7,0,0,0-1.1,3.868A34.164,34.164,0,0,0,397.929,462.63Zm0,0" transform="translate(214.412 229.712)" fill="#ff99a3"/>
  <path id="Path_83" data-name="Path 83" d="M397.928,462.63h49.219a34.164,34.164,0,0,1-16.687-23.984,4.7,4.7,0,0,1,1.1-3.868,4.917,4.917,0,0,1,3.717-1.692H386.057a4.9,4.9,0,0,0-3.717,1.692,4.7,4.7,0,0,0-1.1,3.868A34.162,34.162,0,0,0,397.928,462.63Zm0,0" transform="translate(214.412 229.712)" fill="#f66"/>
  <path id="Path_84" data-name="Path 84" d="M784.063,492.57a7.757,7.757,0,0,1-7.813,7.652H15.312A7.757,7.757,0,0,1,7.5,492.57V460.043a7.756,7.756,0,0,1,7.812-7.652H776.25a7.757,7.757,0,0,1,7.813,7.652Zm0,0" transform="translate(4.219 239.952)" fill="#02af8e"/>
  <path id="Path_85" data-name="Path 85" d="M70.781,492.57V460.043a7.756,7.756,0,0,1,7.813-7.652H15.312A7.756,7.756,0,0,0,7.5,460.043V492.57a7.757,7.757,0,0,0,7.812,7.652H78.594A7.757,7.757,0,0,1,70.781,492.57Zm0,0" transform="translate(4.219 239.952)" fill="#008e83"/>
  <path id="Path_86" data-name="Path 86" d="M362.547,197.342h12.177a11.481,11.481,0,1,0,0-22.956H368.59V153.779a11.721,11.721,0,0,0-23.438,0v26.794C345.152,189.822,352.958,197.342,362.547,197.342Zm0,0" transform="translate(194.148 75.478)"/>
  <path id="Path_87" data-name="Path 87" d="M327.828,173.292a11.6,11.6,0,0,0,11.719-11.478V151.669a11.721,11.721,0,0,0-23.437,0v10.145A11.6,11.6,0,0,0,327.828,173.292Zm0,0" transform="translate(177.811 74.358)"/>
  <path id="Path_88" data-name="Path 88" d="M396.918,173.292a11.6,11.6,0,0,0,11.719-11.478V151.669a11.721,11.721,0,0,0-23.438,0v10.145A11.6,11.6,0,0,0,396.918,173.292Zm0,0" transform="translate(216.675 74.358)"/>
  <path id="Path_89" data-name="Path 89" d="M330.226,203.471a68.176,68.176,0,0,0,92,0,11.311,11.311,0,0,0,.354-16.231,11.889,11.889,0,0,0-16.565-.341c-16.425,15.412-43.146,15.412-59.576,0a11.883,11.883,0,0,0-16.565.347A11.3,11.3,0,0,0,330.226,203.471Zm0,0" transform="translate(183.72 97.439)"/>
  <path id="Path_90" data-name="Path 90" d="M353.277,302.389a11.89,11.89,0,0,0-16.578,0,11.28,11.28,0,0,0,0,16.224,11.888,11.888,0,0,0,16.578,0,11.293,11.293,0,0,0,0-16.224Zm0,0" transform="translate(187.457 158.604)"/>
  <path id="Path_91" data-name="Path 91" d="M391.77,302.389a11.89,11.89,0,0,0-16.578,0,11.323,11.323,0,0,0,0,16.224,11.888,11.888,0,0,0,16.578,0,11.293,11.293,0,0,0,0-16.224Zm0,0" transform="translate(209.12 158.604)"/>
  <path id="Path_92" data-name="Path 92" d="M353.277,345.1a11.921,11.921,0,0,0-16.578,0,11.294,11.294,0,0,0,0,16.236,11.889,11.889,0,0,0,16.578,0,11.307,11.307,0,0,0,0-16.236Zm0,0" transform="translate(187.457 181.263)"/>
  <path id="Path_93" data-name="Path 93" d="M383.489,341.742a11.963,11.963,0,0,0-8.294,3.353,11.335,11.335,0,0,0,0,16.236,11.887,11.887,0,0,0,16.577,0,11.307,11.307,0,0,0,0-16.236A11.968,11.968,0,0,0,383.489,341.742Zm0,0" transform="translate(209.121 181.262)"/>
  <path id="Path_94" data-name="Path 94" d="M353.277,387.812a11.935,11.935,0,0,0-16.578,0,11.294,11.294,0,0,0,0,16.236,11.873,11.873,0,0,0,16.578,0,11.307,11.307,0,0,0,0-16.236Zm0,0" transform="translate(187.457 203.923)"/>
  <path id="Path_95" data-name="Path 95" d="M344.981,427.172a11.917,11.917,0,0,0-8.282,3.365,11.315,11.315,0,0,0,0,16.242,11.933,11.933,0,0,0,16.577,0,11.316,11.316,0,0,0,0-16.242A11.937,11.937,0,0,0,344.981,427.172Zm0,0" transform="translate(187.46 226.575)"/>
  <path id="Path_96" data-name="Path 96" d="M793.884,686.124a45.2,45.2,0,0,0,5.9-15.92,15.983,15.983,0,0,0-3.723-13.14,16.394,16.394,0,0,0-2.484-2.32,45.2,45.2,0,0,0,6.207-16.434,15.97,15.97,0,0,0-3.723-13.134,16.744,16.744,0,0,0-2.484-2.326,45.2,45.2,0,0,0,6.207-16.434,15.97,15.97,0,0,0-3.723-13.134,16.394,16.394,0,0,0-2.484-2.32,45.241,45.241,0,0,0,6.207-16.434,15.988,15.988,0,0,0-3.723-13.14,16.7,16.7,0,0,0-12.653-5.739H753.156V524.278a11.721,11.721,0,0,0-23.437,0v31.373H600.47a16.712,16.712,0,0,0-12.646,5.727,15.993,15.993,0,0,0-3.735,13.158,45.215,45.215,0,0,0,6.207,16.428,16.253,16.253,0,0,0-2.472,2.308,15.987,15.987,0,0,0-3.735,13.158,45.145,45.145,0,0,0,6.207,16.422,16.253,16.253,0,0,0-2.472,2.308,16,16,0,0,0-3.735,13.158,45.215,45.215,0,0,0,6.207,16.428,16.241,16.241,0,0,0-2.472,2.308,15.993,15.993,0,0,0-3.735,13.158,45.614,45.614,0,0,0,3.18,10.653H509.82V448.182c0-5.775,3.912-15.113,8.051-19.22l72.223-71.654a108.625,108.625,0,0,0,21.222-5.59v3.115c0,13.4,9.473,27.493,22.034,32.784l88.513,37.274c3.888,1.638,7.849,7.538,7.849,11.693v34.129a11.721,11.721,0,0,0,23.438,0V436.585c0-13.4-9.473-27.493-22.028-32.778l-88.513-37.274c-3.888-1.638-7.855-7.538-7.855-11.693V339.481a105.208,105.208,0,0,0,42.334-60.068h7.141c17.578,0,31.873-13.977,31.873-31.164V224.414c0-17.187-14.294-31.164-31.873-31.164h-3.876V146.064A64.135,64.135,0,0,0,705.469,95.19c0-35.785-29.694-64.893-66.187-64.893a67.365,67.365,0,0,0-21.521,3.527,66.894,66.894,0,0,0-116.3,0A67.337,67.337,0,0,0,479.944,30.3c-36.493,0-66.187,29.108-66.187,64.893a64.852,64.852,0,0,0,26.648,52.028v46.026h-5.414c-17.572,0-31.872,13.983-31.872,31.17v23.835c0,17.187,14.3,31.164,31.872,31.164h8.679a105.2,105.2,0,0,0,40.8,59v16.416c0,4.155-3.961,10.055-7.849,11.693L388.1,403.806c-12.561,5.285-22.034,19.381-22.034,32.778v33.7A138.518,138.518,0,0,0,287.4,438.211V421.268c0-13.361-11.09-24.235-24.725-24.235H197.644c-13.635,0-24.725,10.874-24.725,24.235v16.942a138.484,138.484,0,0,0-81.9,34.841,134.357,134.357,0,0,0-39.087,61.115H11.719a11.48,11.48,0,1,0,0,22.956H15.68v17.54a19.356,19.356,0,0,0,19.531,19.13h2.057V629.2c0,14.766,12.268,26.782,27.344,26.782v24.881H19.531A19.352,19.352,0,0,0,0,699.994v32.533a19.356,19.356,0,0,0,19.531,19.13H667.188a11.481,11.481,0,1,0,0-22.956H23.437V703.82H776.562V728.7H723.438a11.481,11.481,0,1,0,0,22.956h57.031A19.356,19.356,0,0,0,800,732.527V699.994a18.9,18.9,0,0,0-6.116-13.869ZM684.229,216.2a8.331,8.331,0,0,1,8.435,8.214v23.835a8.334,8.334,0,0,1-8.435,8.208h-3.943c.024-.909.073-1.811.073-2.726V216.2ZM435,256.456a8.334,8.334,0,0,1-8.435-8.208V224.413A8.339,8.339,0,0,1,435,216.2h5.408V253.73c0,.915.049,1.817.073,2.726ZM458.124,131.25a42.018,42.018,0,0,1-20.929-36.06c0-23.124,19.177-41.937,42.749-41.937A43.3,43.3,0,0,1,501.6,59.034a11.946,11.946,0,0,0,10.193.819,11.584,11.584,0,0,0,6.964-7.329,43.012,43.012,0,0,1,81.714,0,11.579,11.579,0,0,0,6.97,7.329,11.931,11.931,0,0,0,10.187-.819,43.312,43.312,0,0,1,21.655-5.781c23.572,0,42.743,18.813,42.743,41.937a41.614,41.614,0,0,1-19.72,35.325,11.425,11.425,0,0,0-5.389,9.661v38.583H463.843v-37.65a11.426,11.426,0,0,0-5.719-9.858Zm5.719,122.48V201.714H656.915V253.73c0,45.195-37.647,81.972-83.923,81.972h-25.22c-46.277-.006-83.929-36.778-83.929-81.972ZM196.357,421.268a1.281,1.281,0,0,1,1.288-1.273h65.033a1.281,1.281,0,0,1,1.288,1.273v16.494H196.357Zm-89.52,68.719a115.16,115.16,0,0,1,76.978-29.269h92.7a115.155,115.155,0,0,1,76.971,29.269,111.827,111.827,0,0,1,30.255,44.179H76.587a111.875,111.875,0,0,1,30.249-44.179ZM39.118,570.835V557.122H421.2v13.714ZM97.089,680.863H88.05V655.982h9.039Zm275.189,0h-9.039V655.982h9.039ZM201.563,633.026a11.481,11.481,0,1,0,0,22.956H339.8v24.881H120.526V655.982h26.349a11.481,11.481,0,1,0,0-22.956H64.618a3.918,3.918,0,0,1-3.906-3.826V593.792h338.9V629.2a3.918,3.918,0,0,1-3.906,3.826Zm284.82-184.844V680.864H395.715V655.982c15.076,0,27.338-12.016,27.338-26.782V593.792h2.057a19.352,19.352,0,0,0,19.531-19.13v-17.54H448.6a11.48,11.48,0,1,0,0-22.956H408.386a133.278,133.278,0,0,0-18.872-38.457V436.584c0-4.155,3.961-10.055,7.849-11.693l88.513-37.274c12.555-5.291,22.028-19.381,22.028-32.784v-3.683a108.533,108.533,0,0,0,20.532,5.787l14.429,14.551L501.19,412.833c-8.441,8.375-14.807,23.572-14.807,35.349ZM767.95,680.864H615.918a22.7,22.7,0,0,1-5.872-6.588H773.821a22.615,22.615,0,0,1-5.872,6.588Zm-3.815-29.544h-144.4a22.926,22.926,0,0,1-9.692-8.931H773.827a22.926,22.926,0,0,1-9.692,8.931Zm0-31.887h-144.4a22.939,22.939,0,0,1-9.692-8.937H773.827a22.939,22.939,0,0,1-9.692,8.937Zm0-31.893h-144.4a22.926,22.926,0,0,1-9.692-8.931H773.827a22.926,22.926,0,0,1-9.692,8.931Zm0,0" transform="translate(0 0)"/>
  <path id="Path_97" data-name="Path 97" d="M135.352,197.659h28.034c14.3,0,25.94,11.418,25.94,25.455s-11.639,25.449-25.94,25.449H136.06a11.481,11.481,0,1,0,0,22.956h27.325c27.222,0,49.377-21.713,49.377-48.405S190.607,174.7,163.385,174.7H135.352a11.48,11.48,0,1,0,0,22.956Zm0,0" transform="translate(69.544 92.664)"/>
  <path id="Path_98" data-name="Path 98" d="M101.474,226.268h32.892a11.481,11.481,0,1,0,0-22.956H101.474c-16.742,0-30.365-13.361-30.365-29.8s13.623-29.8,30.365-29.8h37.134a11.48,11.48,0,1,0,0-22.956H101.474c-29.669,0-53.8,23.661-53.8,52.751S71.805,226.268,101.474,226.268Zm0,0" transform="translate(26.815 64.055)"/>
  <path id="Path_99" data-name="Path 99" d="M138.254,192.055a11.6,11.6,0,0,0,11.719-11.478v-6.659a16.733,16.733,0,0,1,16.87-16.554h67.706c25.275,0,45.837-20.158,45.837-44.938s-20.563-44.938-45.837-44.938H211.008a11.481,11.481,0,1,0,0,22.956h23.541a21.986,21.986,0,1,1,0,43.963H166.843c-22.223,0-40.308,17.725-40.308,39.51v6.659A11.6,11.6,0,0,0,138.254,192.055Zm0,0" transform="translate(71.176 35.796)"/>
</svg>
