<svg xmlns="http://www.w3.org/2000/svg" width="800" height="779.754" viewBox="0 0 800 779.754">
  <g id="customer-review" transform="translate(-6.699 0)">
    <path id="Path_121" data-name="Path 121" d="M710.867,575.4a371.413,371.413,0,0,0,46.388-180.274C757.254,189.051,590.2,22,384.127,22S11,189.051,11,395.123A373.926,373.926,0,0,0,21.91,484.952Z" transform="translate(2.248 11.503)" fill="#4fabf7"/>
    <path id="Path_122" data-name="Path 122" d="M237.3,390.67a124.9,124.9,0,0,0,152.919,0,238.813,238.813,0,0,0,48.515-51.178q-6.065-1.75-12.266-3.308a20.082,20.082,0,0,1-11.443-7.73c-12.238-17.264-15.626-43.95-16.292-63.3a181.445,181.445,0,0,1-26.2,25.043,96.009,96.009,0,0,1-117.551,0,181.7,181.7,0,0,1-26.2-25.043c-.682,19.783-4.2,47.232-17.117,64.443A17.384,17.384,0,0,1,202,335.938q-6.681,1.655-13.219,3.55A238.774,238.774,0,0,0,237.3,390.67Z" transform="translate(95.223 138.663)" fill="#fcad6d"/>
    <path id="Path_123" data-name="Path 123" d="M277.778,411.515A200.491,200.491,0,0,0,313.7,310.286a95.694,95.694,0,0,1-58.711-20.09,181.712,181.712,0,0,1-26.2-25.044c-.682,19.783-4.2,47.232-17.117,64.443A17.382,17.382,0,0,1,202,335.939q-6.681,1.654-13.219,3.55A238.8,238.8,0,0,0,237.3,390.67,124.288,124.288,0,0,0,277.778,411.515Z" transform="translate(95.223 138.663)" fill="#fd995b"/>
    <path id="Path_124" data-name="Path 124" d="M295.389,1.771C210.047,13.4,201.936,61.787,201.9,79.538a9.771,9.771,0,0,1-5.419,8.8c-44.391,21.6-20.458,125.674-20.458,125.674,4.458.3,11.144,4.124,14.624,5.809a76.2,76.2,0,0,1,4.208-15.572,65.32,65.32,0,0,1,5.708-11.4,35.01,35.01,0,0,0,5.358-21.393c-1.6-21.713-2.848-62.478,25.814-75.374,24.28-10.926,54.065-4.6,73.06,1.716a60.318,60.318,0,0,0,38.032,0c18.995-6.316,48.779-12.642,73.06-1.716,28.579,12.86,27.406,53.418,25.828,75.188a35.353,35.353,0,0,0,5.341,21.577,65.648,65.648,0,0,1,5.853,11.774,76.319,76.319,0,0,1,4.066,15.2c4.386-2.125,12.677-6.46,18.04-5.7.656-22.758,2.758-47.292,2.758-47.292C503.059,42.964,387.278-10.749,295.389,1.771Z" transform="translate(85.179 0)" fill="#2a428c"/>
    <path id="Path_125" data-name="Path 125" d="M325.4.036A197.178,197.178,0,0,0,295.388,1.77C210.047,13.4,201.936,61.784,201.9,79.536a9.774,9.774,0,0,1-5.418,8.8c-44.391,21.6-20.458,125.674-20.458,125.674,4.458.3,11.144,4.124,14.625,5.809a76.14,76.14,0,0,1,4.208-15.572,65.285,65.285,0,0,1,5.708-11.4,35.02,35.02,0,0,0,5.357-21.393c-1.6-21.713-2.848-62.478,25.814-75.374,24.281-10.926,54.065-4.6,73.059,1.716a60.277,60.277,0,0,0,9.309,2.289,28.966,28.966,0,0,0-2.783-4.567C274.712,46.242,323.782,1.486,325.4.036Z" transform="translate(85.179 0.003)" fill="#1c2e7a"/>
    <path id="Path_126" data-name="Path 126" d="M386.257,143.721c-6.646-6.092-19.888-3-25.611.726a80.5,80.5,0,0,1,.241,23.689l-6.756,49.2q0,5.949-.355,11.681c16.474,4.969,24.657-9.82,26.036-19.969a75.543,75.543,0,0,1,2.909-12.876C387.1,182.49,402.91,158.985,386.257,143.721Z" transform="translate(181.507 73.355)" fill="#fcad6d"/>
    <path id="Path_127" data-name="Path 127" d="M169.155,143.721c6.646-6.092,19.888-3,25.612.726a80.436,80.436,0,0,0-.242,23.689l6.756,49.2q0,5.949.355,11.681c-16.474,4.969-24.657-9.82-26.035-19.969a75.635,75.635,0,0,0-2.909-12.876C168.31,182.49,152.5,158.985,169.155,143.721Z" transform="translate(81.057 73.355)" fill="#fd995b"/>
    <path id="Path_128" data-name="Path 128" d="M448.731,173.035a65.586,65.586,0,0,0-5.853-11.774,35.363,35.363,0,0,1-5.343-21.579c1.577-21.771.731-64.348-27.847-77.208-24.281-10.926-54.062-4.6-73.057,1.716a60.315,60.315,0,0,1-38.039,0c-18.995-6.316-48.776-12.641-73.056-1.716-28.661,12.9-29.43,55.681-27.835,77.394a35.015,35.015,0,0,1-5.356,21.393,65.365,65.365,0,0,0-5.708,11.4,78.662,78.662,0,0,0-4.453,39.251l6.757,49.213c0,70.752,37.769,118.842,69.895,143.788a96,96,0,0,0,117.551,0c32.125-24.948,69.894-73.036,69.894-143.788l6.756-49.2a78.677,78.677,0,0,0-4.305-38.889Z" transform="translate(91.373 29.567)" fill="#f9ba8f"/>
    <g id="Group_35" data-name="Group 35" transform="translate(272.797 86.11)">
      <path id="Path_129" data-name="Path 129" d="M344.5,404.916c-32.126-24.947-69.895-73.036-69.895-143.788l-6.757-49.213a78.668,78.668,0,0,1,4.453-39.251,65.347,65.347,0,0,1,5.708-11.4,35.013,35.013,0,0,0,5.356-21.393c-1.473-20.053-.911-58.06,21.757-73.915a60.281,60.281,0,0,1-6.531-1.762c-18.993-6.316-48.776-12.641-73.055-1.716-28.661,12.9-29.43,55.681-27.835,77.394a35.013,35.013,0,0,1-5.356,21.393,65.361,65.361,0,0,0-5.708,11.4,78.69,78.69,0,0,0-4.453,39.251l6.757,49.213c0,70.752,37.768,118.842,69.895,143.788a96,96,0,0,0,101.607,10.009A95.474,95.474,0,0,1,344.5,404.916Z" transform="translate(-181.424 -56.541)" fill="#fcad6d"/>
    </g>
    <path id="Path_130" data-name="Path 130" d="M625.91,359.126c-10.965-.9-16.8-5.151-29.724-12.437A393.643,393.643,0,0,0,534.9,318.511C518.059,346.9,499.5,369.853,481.975,387.22c-26.656,26.414-59.551,40.76-93.427,40.76s-66.772-14.347-93.429-40.76c-17.511-17.351-36.054-40.281-52.889-68.641a395.79,395.79,0,0,0-61.095,28.11c-12.924,7.286-18.758,11.541-29.724,12.437-40.18,3.285-70.187,20.254-91.111,47.51a126.916,126.916,0,0,0-14.735,24.582C110.714,540.2,229.848,613.187,366.048,613.187c151.147,0,281.3-89.874,339.944-219.1C685.847,374.088,659.281,361.854,625.91,359.126Z" transform="translate(20.326 166.567)" fill="#2a428c"/>
    <path id="Path_131" data-name="Path 131" d="M295.119,387.195c-17.511-17.351-36.055-40.281-52.889-68.64a395.821,395.821,0,0,0-61.095,28.108c-12.924,7.287-18.758,11.542-29.724,12.437-40.18,3.286-70.187,20.254-91.111,47.51a126.962,126.962,0,0,0-14.735,24.583c65.148,108.984,184.282,181.971,320.482,181.971,2.906,0,5.8-.044,8.69-.111-44.2-64.688,26.879-116.849,26.879-116.849l-30.2-69.511C343.688,422.706,317.251,409.125,295.119,387.195Z" transform="translate(20.326 166.591)" fill="#1c2e7a"/>
    <g id="Group_36" data-name="Group 36" transform="translate(260.344 477.439)">
      <path id="Path_132" data-name="Path 132" d="M228.347,394.409C255,420.824,287.9,435.17,321.776,435.17s66.771-14.347,93.427-40.761c18.292-18.127,37.719-42.324,55.14-72.458-8.517-3.1-17.188-5.945-26.1-8.442a232.887,232.887,0,0,1-47.8,50.591,121.788,121.788,0,0,1-149.121,0,232.866,232.866,0,0,1-47.808-50.6c-8.947,2.512-17.683,5.387-26.274,8.525C190.657,352.122,210.069,376.3,228.347,394.409Z" transform="translate(-173.247 -313.495)" fill="#4b6bb2"/>
    </g>
    <circle id="Ellipse_3" data-name="Ellipse 3" cx="98.413" cy="98.413" r="98.413" transform="translate(323.53 465.967)" fill="#97ffc1"/>
    <path id="Path_133" data-name="Path 133" d="M313.149,500.03c-21.428-21.428,0-44.923,0-44.923V436.373c-45.529-12.249-29.331-63.667-29.331-63.667l-2.062-16.72c-23.125-15.652-7.735-44.469-7.587-44.745a98.42,98.42,0,0,0,38.98,188.789Z" transform="translate(108.794 162.766)" fill="#56e28f"/>
    <ellipse id="Ellipse_4" data-name="Ellipse 4" cx="16.676" cy="18.955" rx="16.676" ry="18.955" transform="translate(361.805 545.794)" fill="#3c58a0"/>
    <path id="Path_134" data-name="Path 134" d="M330.3,377.332c0,10.47-7.467,18.956-16.676,18.956s-16.678-8.486-16.678-18.956,7.467-18.954,16.678-18.954S330.3,366.863,330.3,377.332Z" transform="translate(151.785 187.416)" fill="#3c58a0"/>
    <g id="Group_37" data-name="Group 37" transform="translate(385.797 599.137)">
      <path id="Path_135" data-name="Path 135" d="M312.514,419.755a32.067,32.067,0,0,0-41.494,0,9.36,9.36,0,0,1-12.077-14.3,50.742,50.742,0,0,1,65.647,0,9.36,9.36,0,0,1-12.077,14.3Z" transform="translate(-255.621 -393.404)" fill="#30c16b"/>
    </g>
    <g id="Group_38" data-name="Group 38" transform="translate(443.879 518.687)">
      <path id="Path_136" data-name="Path 136" d="M332.049,365.255a56.7,56.7,0,0,0-20.45-6.6l-10.446-1.287a8.423,8.423,0,1,1,2.061-16.72l10.444,1.287a73.51,73.51,0,0,1,26.5,8.558,8.423,8.423,0,1,1-8.108,14.767Z" transform="translate(-293.759 -340.578)" fill="#2fc16a"/>
    </g>
    <g id="Group_39" data-name="Group 39" transform="translate(349.237 518.686)">
      <path id="Path_137" data-name="Path 137" d="M232.657,361.927a8.425,8.425,0,0,1,3.33-11.439,73.458,73.458,0,0,1,26.5-8.557l10.443-1.288a8.423,8.423,0,1,1,2.062,16.719l-10.445,1.288a56.7,56.7,0,0,0-20.451,6.6A8.423,8.423,0,0,1,232.657,361.927Z" transform="translate(-231.615 -340.578)" fill="#30c16b"/>
    </g>
    <circle id="Ellipse_5" data-name="Ellipse 5" cx="98.511" cy="98.511" r="98.511" transform="translate(528.11 564.489) rotate(-45)" fill="#ff7186"/>
    <path id="Path_138" data-name="Path 138" d="M474.443,461.323V432.767c-24.951-19.814-8.3-47.825-8.3-47.825l-13.434-13.065c-29.855-22.776-7.106-62.914-6.994-63.112a98.519,98.519,0,0,0,28.729,192.753c2.647,0,5.262-.136,7.855-.34-24.365-15.925-7.856-39.855-7.856-39.855Z" transform="translate(193.094 161.471)" fill="#ff4155"/>
    <g id="Group_40" data-name="Group 40" transform="translate(603.702 544.483)">
      <path id="Path_139" data-name="Path 139" d="M485.9,402.245a50.79,50.79,0,0,0-65.71,0,9.369,9.369,0,0,0,6.111,16.527l52.483-.06a9.371,9.371,0,0,0,7.115-16.468Z" transform="translate(-389.206 -340.431)" fill="#3c58a0"/>
      <ellipse id="Ellipse_6" data-name="Ellipse 6" cx="19.797" cy="16.693" rx="19.797" ry="16.693" fill="#3c58a0"/>
      <ellipse id="Ellipse_7" data-name="Ellipse 7" cx="19.797" cy="16.693" rx="19.797" ry="16.693" transform="translate(88.077)" fill="#3c58a0"/>
    </g>
    <g id="Group_41" data-name="Group 41" transform="translate(673.185 527.354)">
      <path id="Path_140" data-name="Path 140" d="M446.979,365.328a9.369,9.369,0,1,1,13.433-13.065,15.245,15.245,0,0,0,16.684,3.522l21.922-8.831a9.368,9.368,0,1,1,7,17.38L484.1,373.167a33.92,33.92,0,0,1-37.117-7.84Z" transform="translate(-444.326 -346.269)" fill="#cc0053"/>
    </g>
    <g id="Group_42" data-name="Group 42" transform="translate(594.33 527.355)">
      <path id="Path_141" data-name="Path 141" d="M420.338,373.165l-21.918-8.83a9.369,9.369,0,0,1,7-17.382l21.918,8.83a15.24,15.24,0,0,0,16.685-3.522,9.369,9.369,0,1,1,13.431,13.066A33.915,33.915,0,0,1,420.338,373.165Z" transform="translate(-392.548 -346.271)" fill="#cc0053"/>
    </g>
    <g id="Group_43" data-name="Group 43" transform="translate(208.088 338.367)">
      <path id="Path_142" data-name="Path 142" d="M145.251,266.585a11.423,11.423,0,0,1-5.108-15.326l11.384-22.767A11.423,11.423,0,1,1,171.96,238.71l-11.384,22.767A11.424,11.424,0,0,1,145.251,266.585Z" transform="translate(-138.935 -222.177)" fill="#ffdd40"/>
    </g>
    <g id="Group_44" data-name="Group 44" transform="translate(162.496 327.771)">
      <path id="Path_143" data-name="Path 143" d="M122.546,263.429a11.422,11.422,0,0,1-11.369-10.462L109.039,227.6a11.422,11.422,0,0,1,22.764-1.92l2.138,25.363a11.422,11.422,0,0,1-10.422,12.342Q123.028,263.429,122.546,263.429Z" transform="translate(-108.998 -215.22)" fill="#ffdd40"/>
    </g>
    <g id="Group_45" data-name="Group 45" transform="translate(240.566 377.595)">
      <path id="Path_144" data-name="Path 144" d="M162,278.925a11.42,11.42,0,0,1,3.62-15.741L187.2,249.677a11.422,11.422,0,0,1,12.121,19.363l-21.576,13.507A11.422,11.422,0,0,1,162,278.925Z" transform="translate(-160.26 -247.935)" fill="#ffdd40"/>
    </g>
    <circle id="Ellipse_8" data-name="Ellipse 8" cx="135.77" cy="135.77" r="135.77" transform="translate(6.699 391.449)" fill="#ffdd40"/>
    <ellipse id="Ellipse_9" data-name="Ellipse 9" cx="23.007" cy="26.149" rx="23.007" ry="26.149" transform="translate(179.422 501.577)" fill="#3c58a0"/>
    <g id="Group_46" data-name="Group 46" transform="translate(172.004 467.508)">
      <path id="Path_145" data-name="Path 145" d="M171.5,334.115a78.231,78.231,0,0,0-29.411-3.739L127.6,331.3a11.621,11.621,0,1,1-1.469-23.2l14.488-.918a101.373,101.373,0,0,1,38.11,4.843,11.621,11.621,0,0,1-7.227,22.09Z" transform="translate(-115.241 -306.974)" fill="#ffb332"/>
    </g>
    <path id="Path_146" data-name="Path 146" d="M13.172,323.334c30.286,33.132,82.722,12.534,102.918-29.095,26.4-54.412,80.877-41.8,96.453-118.227,11.705-57.431-14.494-92.494-38.788-111.894C87.836,122.414,27.53,215.608,13.172,323.334Z" transform="translate(3.385 33.531)" fill="#73c3f9"/>
    <path id="Path_147" data-name="Path 147" d="M425.375,76.609c-24.243,35.92,3.514,122.637-21.065,169.179-35.08,66.425-38.451,117.407,47.924,146.223,48.39,16.144,86.867-.063,111.354-17.442.057-2.664.094-5.332.094-8.008C563.681,249.484,509.742,145.018,425.375,76.609Z" transform="translate(195.82 40.063)" fill="#73c3f9"/>
    <path id="Path_148" data-name="Path 148" d="M466.357,418.714a9.371,9.371,0,0,0,7.114-16.469,50.812,50.812,0,0,0-32.855-12.058s14.659,13.895,0,28.556Z" transform="translate(226.92 204.052)" fill="#2a428c"/>
    <path id="Path_149" data-name="Path 149" d="M100.372,353.167l1.47-23.2c-32.355-24.723-16.047-64.818-16.047-64.818A135.787,135.787,0,0,0,142.47,524.325c-26.793-26.794,0-48.423,0-48.423s7.33-.4-28.622-36.35S100.372,353.167,100.372,353.167Z" transform="translate(0.001 138.664)" fill="#ffb332"/>
    <g id="Group_47" data-name="Group 47" transform="translate(92.605 575.168)">
      <path id="Path_150" data-name="Path 150" d="M141.593,380.712a44.241,44.241,0,0,1-57.243,0,12.912,12.912,0,0,0-16.66,19.732,70,70,0,0,0,90.566,0,12.913,12.913,0,0,0-16.663-19.732Z" transform="translate(-63.106 -377.665)" fill="#ff9100"/>
    </g>
    <path id="Path_151" data-name="Path 151" d="M41.237,355.493c0,14.442,10.3,26.149,23.007,26.149s23.007-11.707,23.007-26.149-10.3-26.149-23.007-26.149S41.237,341.051,41.237,355.493Z" transform="translate(18.062 172.233)" fill="#3c58a0"/>
    <g id="Group_48" data-name="Group 48" transform="translate(41.233 467.508)">
      <path id="Path_152" data-name="Path 152" d="M44.612,334.115a78.233,78.233,0,0,1,29.411-3.739l14.491.919a11.621,11.621,0,1,0,1.47-23.2L75.5,307.181a101.374,101.374,0,0,0-38.11,4.843,11.621,11.621,0,0,0,7.228,22.09Z" transform="translate(-29.374 -306.974)" fill="#ff9100"/>
    </g>
  </g>
</svg>
