<svg id="debit-card" xmlns="http://www.w3.org/2000/svg" width="800" height="861.537" viewBox="0 0 800 861.537">
  <path id="Path_28" data-name="Path 28" d="M654.007,327.633c37.287-.145,73.7,14.5,104.233,41.925V183H19V476.667C18.992,506.629,37.82,531,61.194,531.291H473.609C485.033,416.636,561.58,327.633,654.007,327.633Zm-418.129,112.8H117.734c-32.158,0-58.228-33.415-58.228-74.634s26.069-74.634,58.228-74.634H235.877c32.158,0,58.228,33.415,58.228,74.634S268.036,440.433,235.877,440.433Z" transform="translate(-19 89.577)"/>
  <path id="Path_29" data-name="Path 29" d="M429.944,323.752c0-17.324-10.956-31.367-24.472-31.367S381,306.428,381,323.752v13.231h48.944Z" transform="translate(229.97 216.822)"/>
  <path id="Path_30" data-name="Path 30" d="M212.494,243H94.35C71.513,243,53,266.73,53,296s18.513,53,41.35,53H212.494c22.837,0,41.35-23.729,41.35-53S235.331,243,212.494,243Z" transform="translate(4.384 159.375)"/>
  <path id="Path_31" data-name="Path 31" d="M356.039,429.635H497.924L503.391,408H349.907Z" transform="translate(208.584 351.318)"/>
  <path id="Path_32" data-name="Path 32" d="M758.24,110.543c-.03-14.282-4.5-27.961-12.417-38.01S727.188,56.9,716.046,57H61.194C50.051,56.9,39.335,62.485,31.416,72.533S19.029,96.26,19,110.543v67.6H758.24Z" transform="translate(-19 -56.999)"/>
  <path id="Path_33" data-name="Path 33" d="M758.24,123H19V231.165H758.24ZM74.613,179.246h-.086l-10.633.177c-4.612-.056-8.315-4.893-8.271-10.8s3.818-10.658,8.43-10.6l10.633.052a7.539,7.539,0,0,1,5.932,3.148,12.4,12.4,0,0,1,2.428,7.618,12.143,12.143,0,0,1-2.523,7.458A7.363,7.363,0,0,1,74.613,179.246Zm295.358,2.164h-.044l-263.291-1.458c-4.7-.218-8.414-5.169-8.4-11.193s3.744-10.954,8.442-11.145h.046l263.291,2.1c4.712.2,8.44,5.182,8.395,11.225a12.176,12.176,0,0,1-2.512,7.5,7.379,7.379,0,0,1-5.931,2.974Z" transform="translate(-19 19.779)"/>
  <path id="Path_34" data-name="Path 34" d="M377,369h62.447v15.144H377Z" transform="translate(227.218 305.95)"/>
  <path id="Path_35" data-name="Path 35" d="M462.479,259.733c-91.125,0-165,94.685-165,211.483s73.871,211.481,165,211.48,164.994-94.685,164.994-211.482C627.367,354.472,553.559,259.866,462.479,259.733ZM559.16,574l-11.092,42.555c-1.166,4.371-4.4,7.276-8,7.188H386.241c-3.5.063-6.659-2.684-7.9-6.877l-12.44-42.5a14.238,14.238,0,0,1-.506-4.908l13.486-184.25c.379-5.648,3.989-10.044,8.41-10.241h34.277v-13.23c0-29.271,18.513-53,41.35-53s41.35,23.729,41.35,53v13.23h34.755c4.444.19,8.065,4.632,8.408,10.315l12.139,184.443A13.419,13.419,0,0,1,559.16,574Z" transform="translate(172.529 178.841)"/>
  <path id="Path_36" data-name="Path 36" d="M469.387,323v37.7c0,5.974-3.777,10.816-8.438,10.816s-8.439-4.843-8.439-10.816V323H403.564v37.7c0,5.974-3.778,10.816-8.438,10.816s-8.438-4.843-8.438-10.816V323H360.095l-11.9,162.247H507.1L496.392,323Zm6.752,125.472c0,5.974-3.779,10.815-8.439,10.815H388.374c-4.66,0-8.438-4.842-8.438-10.815V411.7c0-5.974,3.778-10.816,8.438-10.816H467.7c4.66,0,8.439,4.843,8.439,10.816Z" transform="translate(207.405 252.439)"/>
</svg>
