<svg xmlns="http://www.w3.org/2000/svg" width="800" height="800" viewBox="0 0 800 800">
  <g id="Group_284" data-name="Group 284" transform="translate(-278 -17)">
    <g id="Group_228" data-name="Group 228" transform="translate(278 17)">
      <g id="user" transform="translate(136.17 170.213)">
        <g id="Group_6" data-name="Group 6" transform="translate(110.455)">
          <g id="Group_5" data-name="Group 5">
            <path id="Path_24" data-name="Path 24" d="M263.342,0C179.405,0,110.791,66.142,110.791,147.055s68.614,147.055,152.551,147.055,152.551-66.142,152.551-147.055S347.279,0,263.342,0Z" transform="translate(-110.791)" fill="rgba(0,0,0,0.68)"/>
          </g>
        </g>
        <g id="Group_8" data-name="Group 8" transform="translate(0 304.63)">
          <g id="Group_7" data-name="Group 7">
            <path id="Path_25" data-name="Path 25" d="M548.972,354.836a135.678,135.678,0,0,0-15.321-26.971,190.547,190.547,0,0,0-131.233-79.629c-6.661-.641-13.989.642-19.319,4.5-27.979,19.907-61.286,30.181-95.927,30.181s-67.949-10.275-95.927-30.181a25.712,25.712,0,0,0-19.319-4.5C118.633,255.3,70.669,284.2,40.693,327.865a156.425,156.425,0,0,0-15.321,26.971c-2,3.854-1.332,8.349.666,12.2a255.711,255.711,0,0,0,17.986,25.686,247.152,247.152,0,0,0,30.644,33.393c9.326,8.99,19.984,17.338,30.644,25.686,52.626,37.888,115.912,57.794,181.2,57.794S415.075,489.69,467.7,451.8a290.086,290.086,0,0,0,30.644-25.686c10.658-10.275,21.317-21.192,30.644-33.393a224.738,224.738,0,0,0,17.986-25.686C550.3,363.185,550.97,358.688,548.972,354.836Z" transform="translate(-24.165 -247.841)" fill="rgba(0,0,0,0.68)"/>
          </g>
        </g>
      </g>
      <g id="Ellipse_18" data-name="Ellipse 18" transform="translate(0 0)" fill="none" stroke="#707070" stroke-width="2">
        <circle cx="400" cy="400" r="400" stroke="none"/>
        <circle cx="400" cy="400" r="399" fill="none"/>
      </g>
    </g>
  </g>
</svg>
