<svg id="menu" xmlns="http://www.w3.org/2000/svg" width="800" height="861.539" viewBox="0 0 800 861.539">
  <path id="Path_41" data-name="Path 41" d="M175.528,157.14c9.763,14.656,15.6,34.444,15.6,52.921,0,31.567-17.641,54.485-41.946,54.485s-41.946-22.918-41.946-54.485c0-18.477,5.841-38.265,15.621-52.921,7.93-11.914,18.018-19.3,26.325-19.3S167.581,145.227,175.528,157.14Z" transform="translate(37.969 94.103)"/>
  <path id="Path_42" data-name="Path 42" d="M284.908,0H48.151A25.467,25.467,0,0,0,22.46,25.24V836.3a25.467,25.467,0,0,0,25.692,25.24H396.768V51.339A146.826,146.826,0,0,0,284.908,0Zm-49.6,405.428V654.837a25.7,25.7,0,0,1-51.383,0V405.428c-39.908-11.947-67.637-51.524-67.637-101.264,0-28.32,8.752-57.7,24.013-80.584,17.847-26.772,43.11-42.118,69.316-42.118s51.469,15.346,69.316,42.118c15.261,22.885,24.013,52.264,24.013,80.584C302.943,353.9,275.213,393.481,235.306,405.428Z" transform="translate(-22.46)"/>
  <path id="Path_43" data-name="Path 43" d="M346,131.73H463.394V247.061H346Z" transform="translate(208.149 89.931)"/>
  <path id="Path_44" data-name="Path 44" d="M619.617,0H382.862A146.828,146.828,0,0,0,271,51.339v810.2H619.617a25.468,25.468,0,0,0,25.692-25.24V25.24A25.468,25.468,0,0,0,619.617,0ZM542.542,690.358H373.766a25.244,25.244,0,1,1,0-50.481H542.542a25.244,25.244,0,1,1,0,50.481Zm0-100.962H373.766a25.244,25.244,0,1,1,0-50.481H542.542a25.244,25.244,0,1,1,0,50.481Zm0-100.962H373.766a25.244,25.244,0,1,1,0-50.481H542.542a25.244,25.244,0,1,1,0,50.481Zm25.691-126.2a25.457,25.457,0,0,1-25.691,25.24H373.766a25.467,25.467,0,0,1-25.691-25.24V196.421a25.467,25.467,0,0,1,25.691-25.24H542.542a25.457,25.457,0,0,1,25.691,25.24Z" transform="translate(154.692)"/>
</svg>
