<svg xmlns="http://www.w3.org/2000/svg" width="43.432" height="44.765" viewBox="0 0 43.432 44.765">
  <g id="navigation-arrow-" transform="translate(-0.666)">
    <path id="Path_45" data-name="Path 45" d="M42.752,1.033A4.122,4.122,0,0,0,38.495.3L3.187,14.771a4.062,4.062,0,0,0-.3,7.381l14.352,7.285,8.745,13.478a4.049,4.049,0,0,0,3.407,1.85,4.059,4.059,0,0,0,3.9-2.929L43.939,5.187A4.081,4.081,0,0,0,42.752,1.033ZM29.405,40.367H29.4L20.6,27.061a3.559,3.559,0,0,0-.736-.745L40.052,3.983Z"/>
  </g>
</svg>
