<svg id="recommendation" xmlns="http://www.w3.org/2000/svg" width="800" height="861.539" viewBox="0 0 800 861.539">
  <path id="Path_46" data-name="Path 46" d="M546.852,230.17H420.436c-18.583.046-35.059-13.087-40.758-32.476L340.609,65.847c-1.932-6.425-7.4-10.769-13.574-10.769s-11.642,4.344-13.574,10.769l-39.07,131.831c-5.7,19.412-22.189,32.545-40.785,32.491H107.189C101,230.162,95.5,234.53,93.58,240.993a16.54,16.54,0,0,0,5.211,17.531l102.274,81.45c15.053,11.947,21.345,33.18,15.57,52.538L177.578,524.343a16.529,16.529,0,0,0,5.169,17.531,13.274,13.274,0,0,0,16.8.015l102.267-81.45a39.745,39.745,0,0,1,50.4,0l102.267,81.45a13.285,13.285,0,0,0,16.8-.015,16.533,16.533,0,0,0,5.176-17.515L437.407,392.534c-5.776-19.359.523-40.591,15.569-52.523L555.25,258.554A16.532,16.532,0,0,0,560.5,241c-1.918-6.478-7.443-10.861-13.651-10.83Zm0,0" transform="translate(72.979 51.788)"/>
  <path id="Path_47" data-name="Path 47" d="M800,110.15C799.937,49.619,755.2.569,700,.5H100C44.8.569.063,49.619,0,110.15V611.409C.063,671.94,44.8,720.99,100,721.059h57.143a13.989,13.989,0,0,1,11.83,6.876,16.976,16.976,0,0,1,1.444,14.6l-43.59,119.5L393.854,722.627A13.3,13.3,0,0,1,400,721.059H700c55.2-.069,99.937-49.119,100-109.65ZM645.026,336.136,542.759,417.593a16.528,16.528,0,0,0-5.2,17.515l39.07,131.846c5.95,19.359-.377,40.706-15.569,52.538a39.274,39.274,0,0,1-50.384,0L408.4,538.036a13.275,13.275,0,0,0-16.8,0L289.328,619.493a39.844,39.844,0,0,1-50.384.008c-15.025-11.97-21.31-33.18-15.569-52.546l39.069-131.831a16.524,16.524,0,0,0-5.2-17.531L154.974,336.136c-15.025-11.962-21.31-33.18-15.569-52.538s22.2-32.476,40.764-32.468H306.585c6.187,0,11.67-4.36,13.588-10.807l39.056-131.846C364.956,89.094,381.418,75.961,400,75.961s35.045,13.133,40.771,32.514l39.056,131.846c1.918,6.448,7.4,10.807,13.588,10.807H619.831c18.569-.008,35.024,13.1,40.764,32.468s-.544,40.576-15.569,52.538Zm0,0" transform="translate(0 -0.5)"/>
</svg>
