<svg id="shipping" xmlns="http://www.w3.org/2000/svg" width="800" height="861.537" viewBox="0 0 800 861.537">
  <path id="Path_17" data-name="Path 17" d="M217.941,11.378h114.83V167.4H217.941Z" transform="translate(122.632 -11.378)"/>
  <path id="Path_18" data-name="Path 18" d="M217.941,134.067h114.83V214.11H217.941Z" transform="translate(122.632 82.011)"/>
  <path id="Path_19" data-name="Path 19" d="M27.275,134.067V420.479c16.518,3.526,32.16,12.883,44.365,27.815L159.6,555.9c.225.277.466.534.7.807v-21.9c0-46.049,33.242-83.512,74.1-83.512H357.577c15.294,1.948,55.791-24.166,69.755-30.422,59.288-31.064,126.768-29.836,185.135,3.367l35.5,20.32c9.94-35.976,38.476-62.038,72.059-62.038h21.051V134.067H493.341V244.136c0,16.583-11.928,30.026-26.642,30.026H298.584c-14.714,0-26.642-13.443-26.642-30.026V134.067Z" transform="translate(15.346 82.011)"/>
  <path id="Path_20" data-name="Path 20" d="M325.521,167.4H573.253V53.026c0-23-13.749-41.648-30.709-41.648H325.521Z" transform="translate(183.166 -11.378)"/>
  <path id="Path_21" data-name="Path 21" d="M478.7,309.24c-12.433,0-22.547,13.45-22.547,29.982V607.635c0,16.532,10.116,29.982,22.547,29.982h42.085c12.434,0,22.548-13.45,22.548-29.982V339.223c0-16.532-10.114-29.982-22.548-29.982Z" transform="translate(256.67 215.35)"/>
  <path id="Path_22" data-name="Path 22" d="M271.944,11.378H52.8c-14.094,0-25.52,15.5-25.52,34.613V167.4H271.944Z" transform="translate(15.346 -11.378)"/>
  <path id="Path_23" data-name="Path 23" d="M47.8,348.756c-23.54-26.53-63.612,8.15-41.221,39.006l120,163.955C167.318,607.377,227.4,639.3,291.424,639.3H427.153a578.4,578.4,0,0,0,149.854-19.828l82.53-22.245V369.532l-55.794-31.939c-43.655-24.835-94.2-25.754-138.6-2.487L417.689,359.97a96.916,96.916,0,0,1-44.765,11.153H249.746c-11.478,0-20.817,10.523-20.817,23.461V440.07H468.2c14.714,0,26.642,13.443,26.642,30.026s-11.928,30.026-26.642,30.026H224.321c-30.91.421-66.417-15.9-88.559-43.756Z" transform="translate(-0.001 222.237)"/>
</svg>
