<svg id="shopping-bag" xmlns="http://www.w3.org/2000/svg" width="800" height="861.538" viewBox="0 0 800 861.538">
  <g id="Group_2" data-name="Group 2" transform="translate(0 169.96)">
    <g id="Group_1" data-name="Group 1">
      <path id="Path_1" data-name="Path 1" d="M852.542,641.5,807.488,156.7c-2.8-31.236-33.746-55.694-70.426-55.694h-89v112.6c0,13.944-13.219,25.232-29.55,25.232-16.311,0-29.55-11.288-29.55-25.232v-112.6H317.1v112.6c0,13.944-13.239,25.232-29.55,25.232-16.331,0-29.55-11.288-29.55-25.232v-112.6H169c-36.68,0-67.629,24.458-70.426,55.626L53.5,641.565c-3.486,38.84,12.293,77.494,43.28,106.056S171.7,792.583,217.3,792.583H688.759c45.605,0,89.535-16.4,120.524-44.963S856.05,680.4,852.542,641.5ZM586.162,394.615l-152.832,130.5a33.216,33.216,0,0,1-41.8,0L319.9,463.952c-11.544-9.857-11.544-25.821,0-35.678s30.26-9.857,41.784,0l50.747,43.314L544.38,358.921c11.524-9.84,30.24-9.84,41.784,0C597.706,368.778,597.706,384.757,586.162,394.615Z" transform="translate(-53.023 -101.005)"/>
    </g>
  </g>
  <g id="Group_4" data-name="Group 4" transform="translate(206.906)">
    <g id="Group_3" data-name="Group 3">
      <path id="Path_2" data-name="Path 2" d="M350.142,0c-106.48,0-193.1,74.718-193.1,166.544v3.414h58.517v-3.414c0-64,60.368-116.082,134.587-116.082S484.73,102.54,484.73,166.544v3.414h58.515v-3.414C543.244,74.718,456.621,0,350.142,0Z" transform="translate(-157.039)"/>
    </g>
  </g>
</svg>
