<svg id="user" xmlns="http://www.w3.org/2000/svg" width="800" height="861.539" viewBox="0 0 800 861.539">
  <g id="Group_6" data-name="Group 6" transform="translate(168.014)">
    <g id="Group_5" data-name="Group 5">
      <path id="Path_24" data-name="Path 24" d="M342.838,0C215.161,0,110.791,100.61,110.791,223.688s104.37,223.688,232.047,223.688,232.047-100.61,232.047-223.688S470.515,0,342.838,0Z" transform="translate(-110.791)"/>
    </g>
  </g>
  <g id="Group_8" data-name="Group 8" transform="translate(0 463.377)">
    <g id="Group_7" data-name="Group 7">
      <path id="Path_25" data-name="Path 25" d="M822.455,410.593a206.389,206.389,0,0,0-23.305-41.025A289.844,289.844,0,0,0,599.53,248.443c-10.132-.975-21.279.976-29.386,6.837-42.559,30.281-93.223,45.91-145.917,45.91s-103.357-15.629-145.916-45.91c-8.107-5.861-19.254-8.791-29.386-6.837-81.064,10.745-154.022,54.7-199.62,121.124A237.951,237.951,0,0,0,26,410.593c-3.039,5.862-2.027,12.7,1.012,18.561,8.107,13.675,18.239,27.351,27.359,39.072a375.9,375.9,0,0,0,46.613,50.793c14.186,13.675,30.4,26.373,46.613,39.072C227.647,615.723,323.911,646,423.215,646s195.568-30.281,275.619-87.912a441.157,441.157,0,0,0,46.613-39.072c16.213-15.628,32.425-32.235,46.613-50.793a341.983,341.983,0,0,0,27.359-39.072C824.482,423.292,825.494,416.453,822.455,410.593Z" transform="translate(-24.165 -247.841)"/>
    </g>
  </g>
</svg>
