<svg xmlns="http://www.w3.org/2000/svg" width="800" height="890.822" viewBox="0 0 800 890.822">
  <g id="user_1_" data-name="user (1)" transform="translate(-26.1)">
    <path id="Path_162" data-name="Path 162" d="M699.923,461.632c0,120.26-63.019,225.82-157.86,285.428-25.942,16.32-102.5,24.463-179.052,24.463-76.555.017-153.11-8.143-179.052-24.446C89.119,687.469,26.1,581.909,26.1,461.632c0-186.081,150.831-336.912,336.912-336.912C549.075,124.72,699.923,275.551,699.923,461.632Z" transform="translate(0 92.278)" fill="#48588b"/>
    <path id="Path_163" data-name="Path 163" d="M556.651,461.631c0,120.261-63.018,225.82-157.859,285.428-25.942,16.32-102.5,24.463-179.052,24.463V124.72C405.8,124.72,556.651,275.551,556.651,461.631Z" transform="translate(143.272 92.279)" fill="#3c4a83"/>
    <circle id="Ellipse_10" data-name="Ellipse 10" cx="97.277" cy="97.277" r="97.277" transform="translate(245.955 581.38) rotate(-76.7)" fill="#f9c4b9"/>
    <path id="Path_164" data-name="Path 164" d="M317.017,333.847a97.272,97.272,0,0,1-97.277,97.276V236.57A97.284,97.284,0,0,1,317.017,333.847Z" transform="translate(143.272 175.035)" fill="#ffb19e"/>
    <path id="Path_165" data-name="Path 165" d="M474.933,488.729v92.84a337.148,337.148,0,0,1-358.1.02V488.729a140.331,140.331,0,0,1,140.322-140.34h77.46A140.331,140.331,0,0,1,474.933,488.729Z" transform="translate(67.13 257.77)" fill="#60e2f4"/>
    <path id="Path_166" data-name="Path 166" d="M398.792,488.729v92.84A335.161,335.161,0,0,1,219.74,633.053V348.389h38.73A140.33,140.33,0,0,1,398.792,488.729Z" transform="translate(143.272 257.77)" fill="#29c5ec"/>
    <path id="Path_167" data-name="Path 167" d="M551.048,109.508V168.3h-52.2V109.508a57.312,57.312,0,1,0-114.624,0V168.3h-52.2V109.508a109.508,109.508,0,1,1,219.016,0Z" transform="translate(226.356)" fill="#cddbf9"/>
    <path id="Path_168" data-name="Path 168" d="M504.48,109.508V168.3h-52.2V109.508A57.383,57.383,0,0,0,394.972,52.2V0A109.633,109.633,0,0,1,504.48,109.508Z" transform="translate(272.924)" fill="#afc2e8"/>
    <path id="Path_169" data-name="Path 169" d="M304.03,81.73V373.057H436.157l26.1-18.7,26.1,18.7h132.11V81.73Z" transform="translate(205.637 60.471)" fill="#fea000"/>
    <path id="Path_170" data-name="Path 170" d="M553.178,81.73V373.057H421.068l-26.1-18.7V81.73Z" transform="translate(272.922 60.471)" fill="#f78002"/>
    <path id="Path_171" data-name="Path 171" d="M379.972,150.45h52.2V322.211h-52.2Z" transform="translate(261.825 111.316)" fill="#fbe200"/>
    <path id="Path_172" data-name="Path 172" d="M394.972,150.45h26.1V322.211h-26.1Z" transform="translate(272.924 111.316)" fill="#febf01"/>
  </g>
</svg>
