<svg xmlns="http://www.w3.org/2000/svg" width="800" height="826.61" viewBox="0 0 800 826.61">
  <g id="wallet" transform="translate(-8.241)">
    <path id="Path_173" data-name="Path 173" d="M704.493,175.275H56.668a28.957,28.957,0,0,0-28.957,28.957v77.785H733.452V204.232A28.96,28.96,0,0,0,704.493,175.275Z" transform="translate(11.964 107.702)" fill="#ffb125"/>
    <path id="Path_174" data-name="Path 174" d="M457.31,98.19,398.643,692.1a27.145,27.145,0,0,1-29.682,24.345L71.7,687.079A27.144,27.144,0,0,1,47.36,657.4L106.026,63.491a27.144,27.144,0,0,1,29.682-24.345L432.965,68.51A27.144,27.144,0,0,1,457.31,98.19Z" transform="translate(23.955 23.972)" fill="#b6fa4c"/>
    <path id="Path_175" data-name="Path 175" d="M412.589,68.509,115.332,39.145A27.145,27.145,0,0,0,85.65,63.49l-5.263,53.284a26.993,26.993,0,0,1,14.931-2.82l297.257,29.364A27.144,27.144,0,0,1,416.919,173l-53.4,540.625a27.1,27.1,0,0,0,14.75-21.524L436.932,98.193A27.144,27.144,0,0,0,412.589,68.509Z" transform="translate(44.332 23.971)" fill="#a8e83a"/>
    <path id="Path_176" data-name="Path 176" d="M119.482,126.5l-42.8,433.271a16.4,16.4,0,0,0,7.6,15.542,79.6,79.6,0,0,1,32.06,38.722,16.384,16.384,0,0,0,13.692,10.326l154.1,15.221a16.378,16.378,0,0,0,15.447-7.448,79.6,79.6,0,0,1,39.017-31.7,16.4,16.4,0,0,0,10.49-13.755l42.8-433.271a16.4,16.4,0,0,0-7.6-15.543,79.6,79.6,0,0,1-32.06-38.721A16.387,16.387,0,0,0,338.532,88.82L184.435,73.6a16.377,16.377,0,0,0-15.447,7.448,79.6,79.6,0,0,1-39.017,31.7A16.4,16.4,0,0,0,119.482,126.5Z" transform="translate(42.007 45.175)" fill="#7d0"/>
    <path id="Path_177" data-name="Path 177" d="M368.587,137.868a79.6,79.6,0,0,1-32.06-38.722A16.384,16.384,0,0,0,322.835,88.82L168.738,73.6a16.383,16.383,0,0,0-15.449,7.448,79.6,79.6,0,0,1-39.017,31.7A16.4,16.4,0,0,0,103.783,126.5L102.154,143,301.821,162.1a16.383,16.383,0,0,1,13.692,10.326,79.606,79.606,0,0,0,32.06,38.722,16.4,16.4,0,0,1,7.6,15.542l-37.12,375.775c1.592-.723,3.2-1.409,4.845-2.029a16.4,16.4,0,0,0,10.489-13.755l42.8-433.271A16.4,16.4,0,0,0,368.587,137.868Z" transform="translate(57.707 45.175)" fill="#73cc00"/>
    <path id="Path_178" data-name="Path 178" d="M698.075,210.647,361.992,703.816a27.145,27.145,0,0,1-37.717,7.146L77.438,542.748a27.145,27.145,0,0,1-7.146-37.717L406.377,11.861a27.145,27.145,0,0,1,37.717-7.146L690.931,172.929A27.145,27.145,0,0,1,698.075,210.647Z" transform="translate(35.232 0)" fill="#b6fa4c"/>
    <path id="Path_179" data-name="Path 179" d="M589.732,172.929,342.9,4.716a27.144,27.144,0,0,0-37.717,7.146L276.431,54.046a27.13,27.13,0,0,1,7.192,3.478L530.46,225.737a27.145,27.145,0,0,1,7.146,37.717L230.27,714.441a27.15,27.15,0,0,0,30.525-10.623L596.878,210.647A27.147,27.147,0,0,0,589.732,172.929Z" transform="translate(136.431 0)" fill="#a8e83a"/>
    <path id="Path_180" data-name="Path 180" d="M363.212,69.4,118.03,429.183a16.4,16.4,0,0,0-.781,17.281,79.588,79.588,0,0,1,9.585,49.349,16.382,16.382,0,0,0,7.07,15.623l127.96,87.2a16.38,16.38,0,0,0,17.128.865,79.611,79.611,0,0,1,49.435-9.128,16.4,16.4,0,0,0,15.8-7.047L589.408,223.55a16.4,16.4,0,0,0,.78-17.281A79.585,79.585,0,0,1,580.6,156.92a16.383,16.383,0,0,0-7.07-15.623l-127.96-87.2a16.38,16.38,0,0,0-17.128-.865,79.61,79.61,0,0,1-49.435,9.128A16.392,16.392,0,0,0,363.212,69.4Z" transform="translate(65.697 31.472)" fill="#7d0"/>
    <path id="Path_181" data-name="Path 181" d="M514.526,206.268a79.6,79.6,0,0,1-9.585-49.348,16.386,16.386,0,0,0-7.069-15.625l-127.96-87.2a16.384,16.384,0,0,0-17.128-.865,79.6,79.6,0,0,1-49.435,9.127,16.4,16.4,0,0,0-15.8,7.047L277.331,84.4l159.92,107.8a16.38,16.38,0,0,1,7.07,15.623,79.61,79.61,0,0,0,9.585,49.348,16.4,16.4,0,0,1-.781,17.281L238.29,589.7a79.243,79.243,0,0,1,14.477.673,16.4,16.4,0,0,0,15.8-7.047l245.181-359.78A16.4,16.4,0,0,0,514.526,206.268Z" transform="translate(141.359 31.473)" fill="#73cc00"/>
    <circle id="Ellipse_11" data-name="Ellipse 11" cx="87.811" cy="87.811" r="87.811" transform="translate(369.155 236.698)" fill="#b6fa4c"/>
    <path id="Path_182" data-name="Path 182" d="M726.489,701.091H50A41.763,41.763,0,0,1,8.241,659.328V246.034A41.763,41.763,0,0,1,50,204.271H726.489a41.763,41.763,0,0,1,41.763,41.763V659.328A41.762,41.762,0,0,1,726.489,701.091Z" transform="translate(0 125.519)" fill="#ffb125"/>
    <path id="Path_183" data-name="Path 183" d="M482.038,204.271H406.062a41.764,41.764,0,0,1,41.763,41.763V659.328a41.764,41.764,0,0,1-41.763,41.763h75.977A41.763,41.763,0,0,0,523.8,659.328V246.034A41.764,41.764,0,0,0,482.038,204.271Z" transform="translate(244.451 125.519)" fill="#ff901d"/>
    <path id="Path_184" data-name="Path 184" d="M582.72,308.688H430.463a79.831,79.831,0,0,0-79.831,79.831h0a79.83,79.83,0,0,0,79.831,79.83H582.72a15.131,15.131,0,0,0,15.132-15.131v-129.4A15.132,15.132,0,0,0,582.72,308.688Z" transform="translate(210.39 189.681)" fill="#ff6d3a"/>
    <path id="Path_185" data-name="Path 185" d="M582.721,308.688H506.475a15.131,15.131,0,0,1,15.131,15.131V432.813a16.137,16.137,0,0,1-16.137,16.137H430.462a79.827,79.827,0,0,1-79.224-70.132,79.708,79.708,0,0,0,79.224,89.53H582.72a15.131,15.131,0,0,0,15.131-15.131v-129.4A15.129,15.129,0,0,0,582.721,308.688Z" transform="translate(210.389 189.681)" fill="#ed5729"/>
    <path id="Path_186" data-name="Path 186" d="M726.489,204.271H50A41.764,41.764,0,0,0,8.241,246.034V291.8H768.252V246.034A41.763,41.763,0,0,0,726.489,204.271Z" transform="translate(0 125.519)" fill="#ff6d3a"/>
    <path id="Path_187" data-name="Path 187" d="M516.668,222.685a42.07,42.07,0,0,0-5.1-6.18c-.022-.023-.045-.042-.067-.065a41.952,41.952,0,0,0-6.114-5.035q-.833-.562-1.7-1.086c-.854-.519-1.733-1-2.627-1.457q-.866-.445-1.758-.851a41.582,41.582,0,0,0-17.271-3.741H406.063a41.762,41.762,0,0,1,41.758,41.763V291.8H523.8V246.033a41.578,41.578,0,0,0-5.04-19.906C518.118,224.945,517.418,223.8,516.668,222.685Z" transform="translate(244.452 125.518)" fill="#ed5729"/>
    <path id="Path_188" data-name="Path 188" d="M50,545.313H726.489a41.764,41.764,0,0,0,41.763-41.764V457.783H8.241V503.55A41.763,41.763,0,0,0,50,545.313Z" transform="translate(0 281.297)" fill="#ff6d3a"/>
    <path id="Path_189" data-name="Path 189" d="M692.275,457.783v45.839a7.04,7.04,0,0,1-7.092,6.935H50A41.764,41.764,0,0,1,8.241,468.794v34.755A41.763,41.763,0,0,0,50,545.313H726.491c.825,0,1.642-.03,2.454-.077.253-.015.505-.039.757-.059.567-.043,1.13-.095,1.69-.161q.417-.048.833-.1c.557-.076,1.109-.166,1.658-.263.244-.044.489-.083.731-.132.777-.153,1.548-.321,2.309-.518h0c.334-.086.66-.187.991-.281a41.741,41.741,0,0,0,4.829-1.686q.937-.4,1.85-.836t1.8-.923h0q1.773-.964,3.44-2.09h0l0,0c.946-.639,1.857-1.322,2.743-2.034.042-.033.086-.066.126-.1q1.349-1.088,2.6-2.289h0q1.475-1.409,2.809-2.954v0a42,42,0,0,0,3.792-5.139l.094-.145c.417-.674.82-1.355,1.2-2.053,0,0,0,0,0-.007h0a41.557,41.557,0,0,0,2.6-5.821c.082-.229.157-.464.236-.7q.262-.772.5-1.558c.078-.266.153-.533.228-.8q.216-.79.4-1.594c.057-.244.118-.487.17-.732.163-.771.312-1.547.431-2.331,0,0,0-.008,0-.013v-.007c.141-.917.239-1.849.318-2.785.019-.237.037-.475.055-.712.065-.944.108-1.9.108-2.858h0V457.785l-75.975,0Z" transform="translate(0 281.297)" fill="#ed5729"/>
    <circle id="Ellipse_12" data-name="Ellipse 12" cx="37.067" cy="37.067" r="37.067" transform="translate(606.629 541.141)" fill="#f2f2f2"/>
  </g>
</svg>
